<?xml version="1.0" standalone="no"?>
<!DOCTYPE svg PUBLIC "-//W3C//DTD SVG 20010904//EN"
 "http://www.w3.org/TR/2001/REC-SVG-20010904/DTD/svg10.dtd">
<svg version="1.0" xmlns="http://www.w3.org/2000/svg"
 width="320.000000pt" height="320.000000pt" viewBox="0 0 320.000000 320.000000"
 preserveAspectRatio="xMidYMid meet">
<metadata>
Created by potrace 1.14, written by Peter Selinger 2001-2017
</metadata>
<g transform="translate(0.000000,320.000000) scale(0.100000,-0.100000)"
fill="#000000" stroke="none">
<path d="M1460 2573 c-90 -14 -177 -41 -258 -79 -181 -87 -314 -259 -387 -501
l-14 -45 73 74 c149 153 314 204 495 153 82 -24 144 -66 261 -181 151 -148
190 -182 270 -234 74 -50 197 -104 260 -115 18 -3 36 -8 39 -10 4 -2 38 -6 76
-10 221 -20 412 13 564 98 138 78 269 248 326 423 9 27 20 61 25 76 7 21 -9 9
-69 -51 -116 -117 -235 -170 -366 -166 -159 6 -227 43 -406 217 -249 243 -334
294 -564 343 -35 8 -289 14 -325 8z"/>
<path d="M625 1603 c-314 -49 -506 -235 -620 -602 -6 -20 -1 -17 26 15 88 101
171 161 270 194 53 18 81 21 160 18 87 -3 103 -7 173 -41 63 -32 102 -63 236
-192 159 -153 216 -197 329 -255 157 -79 373 -103 604 -66 150 24 319 121 408
235 19 23 40 49 47 57 23 24 100 188 120 257 l20 68 -59 -64 c-110 -121 -225
-178 -363 -182 -155 -5 -249 41 -412 201 -92 91 -178 167 -256 229 -59 47
-239 116 -343 131 -77 11 -261 10 -340 -3z"/>
</g>
</svg>
