<?xml version="1.0" encoding="UTF-8"?>
<svg id="Layer_1" data-name="Layer 1" xmlns="http://www.w3.org/2000/svg" viewBox="0 0 468.77 501.85">
  <defs>
    <style>
      .cls-1 {
        fill: #29a3dc;
        stroke-width: 0px;
      }
    </style>
  </defs>
  <path class="cls-1" d="M232.26,501.85c-2.34-2.9-4.44-6.05-7.07-8.67-72.15-71.96-144.34-143.87-216.6-215.73-2.71-2.69-6.07-4.72-8.6-6.65,22.11-21.86,42.8-42.31,64.26-63.53,55.23,55.94,111.54,112.97,168.13,170.28,58.01-58.74,114.31-115.75,169.47-171.6,22.93,22.71,43.6,43.2,66.9,66.28-1.54.92-5.74,2.42-8.61,5.27-72.31,71.8-144.49,143.72-216.64,215.68-2.63,2.62-4.72,5.77-7.07,8.68h-4.19Z"/>
  <path class="cls-1" d="M233,172.66C292.1,112.73,348.18,55.85,403.26,0c21.92,21.5,42.69,41.87,62.34,61.15-76.17,77.24-153.23,155.39-230.55,233.79C157.41,216.2,80.35,138.06,3.68,60.31,22.08,42.22,42.64,22,63.81,1.19c54.83,55.57,111.27,112.77,169.2,171.47Z"/>
</svg>