<?xml version="1.0" encoding="UTF-8"?>
<svg id="Layer_1" data-name="Layer 1" xmlns="http://www.w3.org/2000/svg" viewBox="0 0 495.37 495.38">
  <defs>
    <style>
      .cls-1 {
        fill: #0ea5e9;
        stroke-width: 0px;
      }
    </style>
  </defs>
  <path class="cls-1" d="M247.04,495.37C110.25,495.16-.32,383.73,0,246.43.32,110.3,111.59-.15,248.27,0c136.73.15,247.57,111.79,247.1,248.89-.46,136.12-111.87,246.71-248.33,246.49ZM247.29,321.94c33.43,0,66.87-.11,100.3.07,9.24.05,17.23-1.51,21.83-10.65,4.69-9.32.48-16.51-5.09-23.71-32.85-42.41-65.53-84.94-98.38-127.35-12.38-15.98-23.63-16.15-35.88-.4-33.19,42.66-66.17,85.49-99.36,128.16-5.67,7.29-9.45,14.57-4.6,23.75,4.78,9.06,12.95,10.26,22.11,10.21,33.02-.18,66.04-.07,99.06-.07Z"/>
</svg>