<?xml version="1.0" encoding="UTF-8"?>
<svg id="Layer_1" data-name="Layer 1" xmlns="http://www.w3.org/2000/svg" viewBox="0 0 429.73 429.75">
  <defs>
    <style>
      .cls-1 {
        fill: #29a3dc;
        stroke-width: 0px;
      }
    </style>
  </defs>
  <path class="cls-1" d="M182.37,213.66c-9.81-9.31-19.2-17.84-28.17-26.79C106.47,139.28,58.8,91.62,11.2,43.9-2,30.66-3.24,16.8,7.44,6.61,17.65-3.14,31.05-1.78,43.7,10.85c52.78,52.65,105.5,105.37,158.1,158.2,3.92,3.93,6.71,8.99,10.63,14.35,6.68-6.23,10.79-9.84,14.65-13.7,51.66-51.61,103.28-103.25,154.93-154.87,3.61-3.6,6.98-7.68,11.21-10.38,10.19-6.51,20.53-6.08,29.31,2.59,8.81,8.7,9.29,19.04,2.79,29.27-2.68,4.23-6.78,7.59-10.39,11.19-55.23,55.23-110.49,110.45-166.95,166.87,4.05,4.3,7.64,8.32,11.45,12.12,52.69,52.74,105.54,105.33,157.93,158.36,5.36,5.42,11.18,13.6,11.03,20.37-.16,7.22-5.54,16.89-11.64,20.65-5.5,3.39-15.32,1.37-22.68-.48-4.34-1.09-7.72-6.35-11.32-9.95-51.66-51.61-103.32-103.21-154.84-154.96-3.91-3.93-6.71-8.98-10.63-14.32-6.66,6.21-10.78,9.82-14.64,13.68-51.66,51.61-103.28,103.25-154.93,154.87-3.61,3.61-6.95,7.7-11.14,10.46-10.19,6.72-20.48,6.15-29.28-2.53-8.78-8.67-9.47-18.97-2.94-29.24,2.69-4.23,6.73-7.64,10.34-11.25,51.61-51.66,103.26-103.28,154.87-154.93,3.89-3.9,7.57-8.01,12.81-13.58Z"/>
</svg>