<?xml version="1.0" encoding="UTF-8"?>
<svg id="Layer_1" data-name="Layer 1" xmlns="http://www.w3.org/2000/svg" viewBox="0 0 23.24 23.24">
  <defs>
    <style>
      .cls-1 {
        fill: #0ea5e9;
        fill-rule: evenodd;
        stroke-width: 0px;
      }
    </style>
  </defs>
  <path class="cls-1" d="M11.62,9.86L21.11.36c.24-.24.56-.36.88-.36.67,0,1.24.54,1.24,1.24,0,.32-.12.64-.36.88l-9.5,9.49,9.49,9.49c.24.24.37.56.37.88,0,.71-.58,1.24-1.24,1.24-.32,0-.64-.12-.88-.36l-9.49-9.49L2.13,22.88c-.24.24-.56.36-.88.36C.58,23.24,0,22.7,0,21.99,0,21.68.12,21.36.37,21.11l9.49-9.49L.36,2.13c-.24-.24-.36-.56-.36-.88C0,.54.57,0,1.24,0,1.56,0,1.88.12,2.13.36l9.49,9.5Z"/>
</svg>