<?xml version="1.0" encoding="UTF-8"?>
<svg id="Layer_1" data-name="Layer 1" xmlns="http://www.w3.org/2000/svg" viewBox="0 0 505.34 505.74">
  <defs>
    <style>
      .cls-1 {
        fill: #29a3dc;
        stroke-width: 0px;
      }
    </style>
  </defs>
  <path class="cls-1" d="M269.21,505.74h-32.6c-1.44-.31-2.86-.78-4.31-.9-42.48-3.4-82.14-15.91-117.23-40.05C28.65,405.35-9.67,322.8,2.07,218.53c6.11-54.27,29.77-101.42,67.96-140.54C127.28,19.35,197.32-6.12,278.8,1.24c45.53,4.11,86.9,20.49,123.5,47.97,53.64,40.27,86.91,93.43,99.04,159.55,1.71,9.33,2.69,18.8,4,28.21v32.61c-.77,6.01-1.45,12.04-2.32,18.03-7.25,49.81-27.09,93.95-60.42,131.7-39.13,44.32-87.83,72.07-146.15,82.51-9.02,1.61-18.15,2.63-27.24,3.93ZM293.34,350.76c10.66,11.13,13.47,25.36,13.42,40.56-.06,19.27-.03,38.53,0,57.8.02,11.92,6.82,16.73,18.17,12.73,108.53-38.27,170.92-152.17,141.38-265.5-23.07-88.51-95.12-151.14-185.56-163.2-43.38-5.79-84.97.98-124.31,20.03C67.8,96.09,17.91,191.15,34.34,288.36c12.17,72,51.54,125.56,115.72,160.51,9.62,5.24,20.01,9.17,30.28,13.08,8.94,3.41,17.13-.84,17.49-9.18.55-12.79.15-25.63.15-38.58-5.55.7-10.74,1.53-15.96,1.99-25.79,2.3-51.05-7.89-60.92-34.92-4.55-12.46-12.57-22.6-24.13-29.76-3.31-2.05-8.57-4.7-6.78-9.05,1.83-4.45,7.56-3.73,11.96-3.1,14.32,2.03,24.34,10.53,31.42,22.45,14.71,24.74,38.14,28.24,61.97,19.08,1.32-.51,3-1.92,3.23-3.15,1.94-10.36,6.02-19.66,13.05-27.41-10.76-2.3-21.31-4.01-31.54-6.85-29.28-8.14-51.52-24.88-61.58-54.5-3.61-10.63-5.69-21.98-6.93-33.17-2.89-26.28,1.84-50.8,19.46-71.73,1.08-1.28,1.43-3.94.96-5.63-4.13-14.85-3.69-29.59.44-44.32,3.43-12.21,4.46-12.79,17.16-10.08,15.87,3.39,29.73,11.19,43.38,19.54,1.86,1.14,4.72,1.9,6.73,1.36,35.14-9.38,70.21-9.26,105.35,0,2.02.53,4.78-.28,6.75-1.32,7.71-4.03,15.09-8.73,22.89-12.57,9.17-4.53,18.8-7.91,29.26-7.94,2.47,0,4.59.1,5.69,3.28,5.84,16.88,7.87,33.95,2.78,51.34-.93,3.17-.33,5.12,1.64,7.49,9.01,10.81,14.89,23.16,17.62,37,3.03,15.41,2.17,30.81-.29,46.15-5.67,35.22-24.12,60.47-58.5,72.19-12.84,4.37-26.33,6.83-39.74,10.21Z"/>
</svg>