<?xml version="1.0" encoding="UTF-8"?>
<svg id="Layer_1" data-name="Layer 1" xmlns="http://www.w3.org/2000/svg" viewBox="0 0 4.5 18.02">
  <defs>
    <style>
      .cls-1 {
        fill: #0ea5e9;
        fill-rule: evenodd;
        stroke-width: 0px;
      }
    </style>
  </defs>
  <path class="cls-1" d="M2.25,13.52c1.24,0,2.25,1.01,2.25,2.25s-1.01,2.25-2.25,2.25-2.25-1.01-2.25-2.25,1.01-2.25,2.25-2.25ZM2.25,6.77c1.24,0,2.25,1.01,2.25,2.25s-1.01,2.25-2.25,2.25-2.25-1.01-2.25-2.25,1.01-2.25,2.25-2.25ZM2.25,0c1.24,0,2.25,1.01,2.25,2.25s-1.01,2.25-2.25,2.25S0,3.49,0,2.25,1.01,0,2.25,0Z"/>
</svg>