<?xml version="1.0" encoding="UTF-8"?>
<svg id="Layer_1" data-name="Layer 1" xmlns="http://www.w3.org/2000/svg" viewBox="0 0 124.73 494.93">
  <defs>
    <style>
      .cls-1 {
        fill: #29a3dc;
        stroke-width: 0px;
      }
    </style>
  </defs>
  <path class="cls-1" d="M62.03,0c34.43-.09,62.08,26.87,62.69,61.1.61,34.26-27.87,62.68-62.71,62.58C27.91,123.58-.02,95.71,0,61.77.02,27.77,27.81.09,62.03,0Z"/>
  <path class="cls-1" d="M62.27,494.93C28.09,494.9.19,467.28,0,433.27c-.19-34.44,28.11-62.23,63.15-62.02,34.09.21,61.92,28.33,61.58,62.23-.35,34.05-28.23,61.49-62.46,61.46Z"/>
  <path class="cls-1" d="M61.25,309.76C27.27,308.75-.63,279.97.01,246.61c.66-34.27,30.7-63.13,64.15-61.63,34.03,1.53,61.73,30.75,60.53,63.86-1.23,34.03-30.26,61.9-63.45,60.91Z"/>
</svg>